<?xml version="1.0" encoding="UTF-8"?>
<svg id="Camada_1" xmlns="http://www.w3.org/2000/svg" version="1.1" viewBox="0 0 3721.5 711.5">
  <!-- Generator: Adobe Illustrator 29.3.0, SVG Export Plug-In . SVG Version: 2.1.0 Build 146)  -->
  <path d="M112,247.2v459.5h234.3v-225.2c0-62.2-24.7-121.8-68.6-165.7s-103.5-68.6-165.7-68.7h0Z"/>
  <path d="M428.6,311.8c-43.9,44-68.6,103.5-68.6,165.7h283.5v-234.4h-49.2c-62.2,0-121.7,24.7-165.7,68.7h0Z"/>
  <path d="M428.7,160.7c43.9,43.9,103.5,68.6,165.7,68.6h156.5V-4.9h-390.8c0,62.1,24.7,121.7,68.6,165.7h0Z"/>
  <path d="M346.3-4.9H4.8v234.3h107.1c62.1,0,121.7-24.7,165.7-68.6,43.9-43.9,68.6-103.5,68.6-165.7h0Z"/>
  <polygon points="1023.9 561.3 1111.3 561.3 1111.3 366.3 1334.9 366.3 1334.9 286.8 1111.3 286.8 1111.3 146.3 1356.4 146.3 1356.4 66.8 1023.9 66.8 1023.9 561.3"/>
  <path d="M1663.9,488.2h-118.2c-22,0-33-11-33-33V185h-83.8v263c0,75.5,37.7,113.2,113.2,113.2h205.7V185h-83.8v303.1h0Z"/>
  <path d="M1936,455.2v-197.1h128.3v-73.1h-128.3v-118.2h-83.8v381.2c0,75.5,37.7,113.2,113.2,113.2h68.1l38-28v-45.2h-102.5c-22,0-33-11-33-33h0Z"/>
  <path d="M2383.3,488.2h-118.2c-22,0-33-11-33-33V185h-83.8v263c0,75.5,37.7,113.2,113.2,113.2h205.7V185h-83.8v303.1h0Z"/>
  <path d="M2670.5,185c-48.7,0-81.7,15.5-98.9,46.6v329.6h83.8v-290.9c6.7-8.1,18.1-12.2,34.4-12.2h93.9v-45.1l-38-28h-75.2Z"/>
  <rect x="2853.6" y="34.6" width="88.1" height="85.3"/>
  <rect x="2855.8" y="185" width="83.8" height="376.2"/>
  <polygon points="3322.7 248.8 3322.7 185 3032.5 185 3032.5 258.1 3215.9 258.1 3025.3 497.5 3025.3 561.3 3329.9 561.3 3329.9 488.2 3132.8 488.2 3322.7 248.8"/>
  <path d="M3590.5,185h-118.9l-37.3,28v45.1h151.9c22,0,33,11,33,33v46.6h-110.4c-75.5,0-113.2,37.3-113.2,111.8s37.7,111.8,113.2,111.8h194.2v-263c0-75.5-37.5-113.2-112.5-113.2h0ZM3619.1,488.2h-106.8c-22,0-33-11-33-33v-20.1c0-21.5,11-32.2,33-32.2h106.8v85.3Z"/>
</svg>