<?xml version="1.0" encoding="UTF-8"?>
<svg id="Camada_1" xmlns="http://www.w3.org/2000/svg" version="1.1" viewBox="0 0 756.1 722">
  <!-- Generator: Adobe Illustrator 29.3.0, SVG Export Plug-In . SVG Version: 2.1.0 Build 146)  -->
  <path d="M111.5,256.6v459.5h234.3v-225.2c0-62.2-24.7-121.8-68.6-165.7s-103.5-68.6-165.7-68.7h0Z"/>
  <path d="M428.1,321.3c-43.9,44-68.6,103.5-68.6,165.7h283.5v-234.4h-49.2c-62.2,0-121.7,24.7-165.7,68.7h0Z"/>
  <path d="M428.2,170.2c43.9,43.9,103.5,68.6,165.7,68.6h156.5V4.5h-390.8c0,62.1,24.7,121.7,68.6,165.7h0Z"/>
  <path d="M345.8,4.5H4.3v234.3h107.1c62.1,0,121.7-24.7,165.7-68.6S345.8,66.7,345.8,4.5h0Z"/>
</svg>